<svg width="784" height="784" viewBox="0 0 784 784" fill="none" xmlns="http://www.w3.org/2000/svg">
<g clip-path="url(#clip0_254_138)">
<rect width="784" height="784" rx="178" fill="url(#paint0_linear_254_138)"/>
<mask id="mask0_254_138" style="mask-type:alpha" maskUnits="userSpaceOnUse" x="-121" y="218" width="1002" height="1001">
<rect x="-121" y="218" width="1002" height="1001" fill="url(#paint1_linear_254_138)"/>
</mask>
<g mask="url(#mask0_254_138)">
<path d="M392.197 241.415C604.286 241.415 784.824 376.497 852.471 565.319H865.868V592.635H861.353C874.126 636.27 880.979 682.433 880.979 730.197C880.979 1000.14 662.144 1218.98 392.197 1218.98C122.25 1218.98 -96.5852 1000.14 -96.5852 730.197C-96.5852 682.433 -89.7313 636.27 -76.9582 592.635H-81.4533V565.319H-68.0774C-0.430302 376.497 180.108 241.415 392.197 241.415ZM158.604 592.635C151.281 636.021 147.318 682.216 147.318 730.197C147.318 859.021 175.879 974.973 221.37 1058.23C260.826 1130.44 311.593 1175.86 365.888 1187.02C370.09 1187.25 374.307 1187.43 378.539 1187.56V592.635H158.604ZM405.855 592.635V1187.56C410.087 1187.43 414.304 1187.25 418.506 1187.02C472.801 1175.86 523.569 1130.44 563.025 1058.23C608.517 974.973 637.077 859.021 637.077 730.197C637.077 682.216 633.114 636.021 625.791 592.635H405.855ZM-44.3244 592.635C-57.9937 636.054 -65.3664 682.264 -65.3664 730.197C-65.3664 943.831 81.0435 1123.27 278.997 1173.65C247.841 1148.36 220.275 1113.2 197.398 1071.33C149.317 983.333 120.002 862.698 120.002 730.197C120.002 682.481 123.804 636.303 130.915 592.635H-44.3244ZM653.481 592.635C660.592 636.303 664.394 682.481 664.394 730.197C664.394 862.698 635.078 983.333 586.998 1071.33C564.121 1113.2 536.554 1148.36 505.398 1173.65C703.352 1123.27 849.761 943.831 849.761 730.197C849.761 682.264 842.389 636.054 828.72 592.635H653.481ZM104.803 374.131C42.9534 424.116 -5.60983 489.887 -34.759 565.319H135.857C148.62 501.306 168.63 443.431 194.214 394.993C185.589 393.489 177.474 391.951 169.88 390.411C144.2 385.203 124.468 379.981 111.081 376.032C108.804 375.36 106.711 374.723 104.803 374.131ZM222.813 399.542C222.331 400.412 221.849 401.285 221.37 402.163C196.429 447.809 176.577 503.284 163.731 565.319H378.539V411.111C317.553 410.479 265.356 405.68 222.813 399.542ZM561.582 399.545C519.038 405.683 466.84 410.481 405.855 411.112V565.319H620.663C607.817 503.284 587.966 447.809 563.025 402.163C562.546 401.286 562.064 400.414 561.582 399.545ZM679.595 374.136C677.692 374.727 675.604 375.362 673.333 376.032C659.945 379.981 640.214 385.203 614.534 390.411C606.935 391.952 598.814 393.491 590.183 394.996C615.766 443.433 635.777 501.307 648.539 565.319H819.153C790.005 489.889 741.443 424.12 679.595 374.136ZM378.539 272.835C374.308 272.959 370.092 273.139 365.89 273.377C319.011 283.011 274.762 318.182 238.152 374.09C277.324 379.286 324.334 383.22 378.539 383.793V272.835ZM405.855 383.793C460.061 383.221 507.071 379.288 546.244 374.092C509.633 318.181 465.381 283.008 418.499 273.376C414.299 273.138 410.084 272.959 405.855 272.835V383.793ZM505.398 286.747C531.629 308.036 555.315 336.325 575.8 369.723C587.864 367.75 598.974 365.694 609.105 363.639C626.332 360.146 640.725 356.658 652.156 353.603C608.201 323.204 558.666 300.303 505.398 286.747ZM278.997 286.746C225.731 300.302 176.197 323.202 132.243 353.599C143.676 356.655 158.074 360.144 175.308 363.639C185.434 365.693 196.539 367.748 208.596 369.72C229.081 336.323 252.767 308.035 278.997 286.746Z" fill="white" fill-opacity="0.46"/>
</g>
<path d="M217.711 641.386C204.984 641.386 193.677 639.085 183.79 634.483C173.904 629.881 166.092 623.545 160.353 615.477C154.671 607.409 151.717 598.148 151.489 587.693H192.398C192.739 594.114 195.353 599.284 200.239 603.205C205.126 607.068 210.95 609 217.711 609C222.995 609 227.683 607.835 231.773 605.506C235.864 603.176 239.075 599.909 241.404 595.705C243.734 591.443 244.87 586.557 244.813 581.045C244.87 575.42 243.705 570.506 241.319 566.301C238.989 562.097 235.751 558.83 231.603 556.5C227.512 554.114 222.796 552.92 217.455 552.92C212.398 552.864 207.597 553.972 203.052 556.244C198.563 558.517 195.154 561.614 192.825 565.534L155.58 558.545L163.165 464.455H275.154V498.46H197.853L193.847 539.625H194.87C197.768 534.795 202.427 530.818 208.847 527.693C215.325 524.511 222.683 522.92 230.921 522.92C241.376 522.92 250.694 525.364 258.876 530.25C267.114 535.08 273.592 541.784 278.308 550.364C283.08 558.943 285.467 568.773 285.467 579.852C285.467 591.841 282.626 602.466 276.944 611.727C271.319 620.989 263.421 628.261 253.251 633.545C243.137 638.773 231.29 641.386 217.711 641.386ZM373.485 639H308.968V464.455H373.4C391.184 464.455 406.496 467.949 419.337 474.938C432.235 481.869 442.178 491.869 449.167 504.938C456.156 517.949 459.65 533.517 459.65 551.642C459.65 569.824 456.156 585.449 449.167 598.517C442.235 611.585 432.32 621.614 419.423 628.602C406.525 635.534 391.212 639 373.485 639ZM351.156 603.034H371.866C381.638 603.034 389.906 601.386 396.667 598.091C403.485 594.739 408.627 589.312 412.093 581.812C415.616 574.256 417.377 564.199 417.377 551.642C417.377 539.085 415.616 529.085 412.093 521.642C408.57 514.142 403.371 508.744 396.496 505.449C389.678 502.097 381.269 500.42 371.269 500.42H351.156V603.034ZM484.281 639V464.455H556.383C569.451 464.455 580.729 466.812 590.218 471.528C599.764 476.187 607.121 482.892 612.292 491.642C617.462 500.335 620.048 510.648 620.048 522.58C620.048 534.682 617.406 544.966 612.121 553.432C606.837 561.841 599.337 568.261 589.621 572.693C579.906 577.068 568.4 579.256 555.104 579.256H509.508V546.017H547.263C553.627 546.017 558.94 545.193 563.201 543.545C567.519 541.841 570.786 539.284 573.002 535.875C575.218 532.409 576.326 527.977 576.326 522.58C576.326 517.182 575.218 512.722 573.002 509.199C570.786 505.619 567.519 502.949 563.201 501.188C558.883 499.369 553.57 498.46 547.263 498.46H526.468V639H484.281ZM582.548 559.227L626.014 639H579.991L537.377 559.227H582.548Z" fill="white"/>
<g clip-path="url(#clip1_254_138)">
<rect x="138" y="153" width="319" height="234" rx="40" fill="url(#paint2_linear_254_138)"/>
<g filter="url(#filter0_d_254_138)">
<path d="M175.771 229.787V204.091H286.418V229.787H246.723V335H215.53V229.787H175.771ZM333.895 204.091L357.801 245.447H358.824L382.986 204.091H418.398L378.895 269.545L419.676 335H383.369L358.824 293.196H357.801L333.256 335H297.204L337.794 269.545L298.227 204.091H333.895Z" fill="white"/>
</g>
</g>
<path d="M489 168.5C489 162.131 487.746 155.824 485.308 149.94C482.871 144.056 479.298 138.709 474.795 134.205C470.291 129.702 464.944 126.129 459.06 123.692C453.176 121.254 446.869 120 440.5 120" stroke="#FF5851" stroke-width="24" stroke-linecap="round"/>
<path d="M543 160.5C543 148.09 540.556 135.802 535.807 124.336C531.058 112.871 524.097 102.454 515.322 93.6784C506.546 84.9033 496.129 77.9425 484.664 73.1934C473.198 68.4443 460.91 66 448.5 66" stroke="#FF5851" stroke-width="24" stroke-linecap="round"/>
</g>
<defs>
<filter id="filter0_d_254_138" x="127.771" y="160.091" width="339.904" height="226.909" filterUnits="userSpaceOnUse" color-interpolation-filters="sRGB">
<feFlood flood-opacity="0" result="BackgroundImageFix"/>
<feColorMatrix in="SourceAlpha" type="matrix" values="0 0 0 0 0 0 0 0 0 0 0 0 0 0 0 0 0 0 127 0" result="hardAlpha"/>
<feOffset dy="4"/>
<feGaussianBlur stdDeviation="24"/>
<feComposite in2="hardAlpha" operator="out"/>
<feColorMatrix type="matrix" values="0 0 0 0 0 0 0 0 0 0 0 0 0 0 0 0 0 0 0.1 0"/>
<feBlend mode="normal" in2="BackgroundImageFix" result="effect1_dropShadow_254_138"/>
<feBlend mode="normal" in="SourceGraphic" in2="effect1_dropShadow_254_138" result="shape"/>
</filter>
<linearGradient id="paint0_linear_254_138" x1="392" y1="0" x2="392" y2="784" gradientUnits="userSpaceOnUse">
<stop/>
<stop offset="1" stop-color="#262626"/>
</linearGradient>
<linearGradient id="paint1_linear_254_138" x1="380" y1="218" x2="380" y2="1219" gradientUnits="userSpaceOnUse">
<stop stop-color="white" stop-opacity="0.25"/>
<stop offset="0.564699" stop-color="white" stop-opacity="0.1"/>
</linearGradient>
<linearGradient id="paint2_linear_254_138" x1="297.5" y1="153" x2="297.5" y2="387" gradientUnits="userSpaceOnUse">
<stop stop-color="#FF5851"/>
<stop offset="1" stop-color="#FF6A64"/>
</linearGradient>
<clipPath id="clip0_254_138">
<rect width="784" height="784" fill="white"/>
</clipPath>
<clipPath id="clip1_254_138">
<rect x="138" y="153" width="319" height="234" rx="40" fill="white"/>
</clipPath>
</defs>
</svg>
